# xmcd
# Copyright (C) 1995-1998 Ti Kan
#
# Track frame offsets:
#       150
#       8926
#       146306
#
# Disc length: 4085 seconds
#
# Revision: 0
# Processed by: cddbd v1.5.2PL0 Copyright (c) Steve Scherf et al.
# Submitted via: CD-Import v1.0
#
DISCID=1c0ff303
DTITLE=Paul Burkhart - Zäller Wiehnacht (Zensiert)
DYEAR=65
DGENRE=
TTITLE0=Anmodi Zäller Wiehnacht
TTITLE1=Zäller Wiehnacht 1
TTITLE2=Zäller Wiehnacht 2
EXTD=
EXTT0=
EXTT1=
EXTT2=
PLAYORDER=
